<svg xmlns="http://www.w3.org/2000/svg" viewBox="0 0 512 512">
  <defs>
    <linearGradient id="bg" x1="0" y1="0" x2="0" y2="1">
      <stop offset="0%" stop-color="#3c3836"/>
      <stop offset="100%" stop-color="#282828"/>
    </linearGradient>
    <linearGradient id="folder" x1="0" y1="0" x2="0" y2="1">
      <stop offset="0%" stop-color="#fabd2f"/>
      <stop offset="100%" stop-color="#d79921"/>
    </linearGradient>
    <linearGradient id="accent" x1="0" y1="0" x2="1" y2="1">
      <stop offset="0%" stop-color="#fe8019"/>
      <stop offset="100%" stop-color="#d65d0e"/>
    </linearGradient>
  </defs>
  <!-- Background -->
  <rect width="512" height="512" rx="96" fill="url(#bg)"/>
  <!-- Folder back -->
  <path d="M96 168 h120 l32 -40 h168 c17.7 0 32 14.3 32 32 v224 c0 17.7 -14.3 32 -32 32 H96 c-17.7 0 -32 -14.3 -32 -32 V200 c0-17.7 14.3-32 32-32z" fill="url(#folder)" opacity="0.85"/>
  <!-- Folder front -->
  <rect x="64" y="200" width="384" height="216" rx="24" fill="url(#folder)"/>
  <!-- Magnifier -->
  <circle cx="340" cy="320" r="48" fill="none" stroke="url(#accent)" stroke-width="16"/>
  <line x1="374" y1="354" x2="412" y2="392" stroke="url(#accent)" stroke-width="16" stroke-linecap="round"/>
</svg>
